<?xml version="1.0" encoding="utf-8"?>
<!-- Generator: Adobe Illustrator 16.0.4, SVG Export Plug-In . SVG Version: 6.00 Build 0)  -->
<!DOCTYPE svg PUBLIC "-//W3C//DTD SVG 1.1//EN" "http://www.w3.org/Graphics/SVG/1.1/DTD/svg11.dtd">
<svg version="1.1" id="Layer_2" xmlns="http://www.w3.org/2000/svg" xmlns:xlink="http://www.w3.org/1999/xlink" x="0px" y="0px"
	 width="252px" height="38px" viewBox="0 0 252 38" enable-background="new 0 0 252 38" xml:space="preserve">
<g>
	<radialGradient id="SVGID_1_" cx="114" cy="69.8086" r="143.5035" gradientUnits="userSpaceOnUse">
		<stop  offset="0" style="stop-color:#94E2FF"/>
		<stop  offset="0.1076" style="stop-color:#8DD9FA"/>
		<stop  offset="0.2821" style="stop-color:#78C1EB"/>
		<stop  offset="0.502" style="stop-color:#579AD3"/>
		<stop  offset="0.7559" style="stop-color:#2964B2"/>
		<stop  offset="0.9614" style="stop-color:#003394"/>
	</radialGradient>
	<path fill="url(#SVGID_1_)" d="M5.469,32.631c-0.637-0.279-0.757-0.479-0.757-1.353c0-2.19,0.16-4.579,0.199-5.216
		c0.04-0.598,0.159-1.036,0.478-1.036c0.358,0,0.398,0.357,0.398,0.676c0,0.519,0.159,1.354,0.358,2.032
		c0.876,2.945,3.225,4.021,5.694,4.021c3.583,0,5.335-2.429,5.335-4.538c0-1.951-0.597-3.784-3.902-6.372l-1.832-1.433
		c-4.379-3.424-5.893-6.213-5.893-9.438c0-4.379,3.663-7.525,9.198-7.525c2.588,0,4.26,0.399,5.296,0.678
		c0.358,0.079,0.557,0.199,0.557,0.478c0,0.518-0.159,1.673-0.159,4.778c0,0.875-0.119,1.193-0.438,1.193
		c-0.279,0-0.398-0.237-0.398-0.716c0-0.358-0.199-1.593-1.035-2.628c-0.597-0.756-1.751-1.951-4.34-1.951
		c-2.946,0-4.738,1.712-4.738,4.102c0,1.831,0.916,3.225,4.221,5.734l1.115,0.836c4.818,3.623,6.53,6.369,6.53,10.152
		c0,2.31-0.876,5.057-3.743,6.928c-1.991,1.274-4.221,1.634-6.331,1.634C8.973,33.667,7.181,33.387,5.469,32.631z"/>
	<radialGradient id="SVGID_2_" cx="114" cy="69.8086" r="143.5035" gradientUnits="userSpaceOnUse">
		<stop  offset="0" style="stop-color:#94E2FF"/>
		<stop  offset="0.1076" style="stop-color:#8DD9FA"/>
		<stop  offset="0.2821" style="stop-color:#78C1EB"/>
		<stop  offset="0.502" style="stop-color:#579AD3"/>
		<stop  offset="0.7559" style="stop-color:#2964B2"/>
		<stop  offset="0.9614" style="stop-color:#003394"/>
	</radialGradient>
	<path fill="url(#SVGID_2_)" d="M26.675,30.246c-3.061-2.567-3.87-5.944-3.87-8.828c0-2.041,0.668-5.559,3.623-8.196
		c2.251-1.97,5.206-3.165,9.814-3.165c1.935,0,3.095,0.141,4.502,0.316c1.161,0.176,2.181,0.387,3.095,0.492
		c0.353,0.035,0.458,0.176,0.458,0.352c0,0.246-0.071,0.598-0.141,1.652c-0.07,0.986-0.07,2.639-0.105,3.237
		c-0.035,0.421-0.141,0.738-0.422,0.738c-0.247,0-0.317-0.247-0.317-0.633c-0.035-0.949-0.422-2.006-1.196-2.779
		c-1.055-1.02-3.13-1.759-5.979-1.759c-2.708,0-4.432,0.492-5.839,1.688c-2.286,1.97-2.849,4.854-2.849,7.773
		c0,7.104,5.487,10.481,9.638,10.481c2.744,0,4.256-0.211,5.487-1.583c0.528-0.596,0.95-1.441,1.056-2.004
		c0.07-0.458,0.141-0.598,0.387-0.598c0.211,0,0.352,0.281,0.352,0.528c0,0.351-0.352,2.952-0.668,3.974
		c-0.141,0.528-0.281,0.668-0.809,0.88c-1.231,0.492-3.588,0.668-5.593,0.668C33.077,33.482,29.489,32.603,26.675,30.246z"/>
	<radialGradient id="SVGID_3_" cx="114" cy="69.8086" r="143.5239" gradientUnits="userSpaceOnUse">
		<stop  offset="0" style="stop-color:#94E2FF"/>
		<stop  offset="0.1076" style="stop-color:#8DD9FA"/>
		<stop  offset="0.2821" style="stop-color:#78C1EB"/>
		<stop  offset="0.502" style="stop-color:#579AD3"/>
		<stop  offset="0.7559" style="stop-color:#2964B2"/>
		<stop  offset="0.9614" style="stop-color:#003394"/>
	</radialGradient>
	<path fill="url(#SVGID_3_)" d="M49.573,19.131c0-4.537,0-5.383-0.035-6.332c-0.07-1.02-0.387-1.372-1.055-1.582
		c-0.352-0.105-0.739-0.141-1.126-0.141c-0.316,0-0.492-0.07-0.492-0.353c0-0.175,0.246-0.246,0.738-0.246
		c1.161,0,3.271,0.071,4.151,0.071c0.774,0,2.779-0.071,3.975-0.071c0.387,0,0.633,0.071,0.633,0.246
		c0,0.282-0.176,0.353-0.492,0.353c-0.317,0-0.563,0.035-0.915,0.105c-0.844,0.141-1.09,0.562-1.16,1.617
		c-0.071,0.949-0.071,1.795-0.071,6.332v5.276c0,2.884,0,5.276,0.141,6.543c0.105,0.809,0.317,1.266,1.231,1.405
		c0.423,0.07,1.126,0.107,1.583,0.107c0.352,0,0.493,0.175,0.493,0.316c0,0.21-0.247,0.314-0.598,0.314
		c-2.04,0-4.151-0.104-4.995-0.104c-0.704,0-2.814,0.104-4.045,0.104c-0.387,0-0.598-0.104-0.598-0.314
		c0-0.142,0.105-0.316,0.493-0.316c0.457,0,0.809-0.037,1.09-0.107c0.633-0.14,0.809-0.562,0.914-1.442
		c0.141-1.229,0.141-3.622,0.141-6.506V19.131z"/>
	<radialGradient id="SVGID_4_" cx="114" cy="69.8086" r="143.5035" gradientUnits="userSpaceOnUse">
		<stop  offset="0" style="stop-color:#94E2FF"/>
		<stop  offset="0.1076" style="stop-color:#8DD9FA"/>
		<stop  offset="0.2821" style="stop-color:#78C1EB"/>
		<stop  offset="0.502" style="stop-color:#579AD3"/>
		<stop  offset="0.7559" style="stop-color:#2964B2"/>
		<stop  offset="0.9614" style="stop-color:#003394"/>
	</radialGradient>
	<path fill="url(#SVGID_4_)" d="M62.481,19.131c0-4.537,0-5.383-0.035-6.332c-0.071-1.02-0.352-1.336-1.337-1.617
		c-0.247-0.07-0.773-0.105-1.231-0.105c-0.317,0-0.528-0.105-0.528-0.316s0.247-0.282,0.704-0.282c1.618,0,3.587,0.071,4.467,0.071
		c0.985,0,7.844,0.034,8.442,0c0.562-0.035,1.055-0.141,1.301-0.176c0.176-0.035,0.352-0.141,0.492-0.141
		c0.176,0,0.211,0.141,0.211,0.281c0,0.21-0.175,0.562-0.246,1.935c-0.035,0.315-0.105,1.617-0.176,1.969
		c-0.035,0.142-0.105,0.493-0.352,0.493c-0.211,0-0.246-0.141-0.246-0.387c0-0.212-0.036-0.738-0.211-1.091
		c-0.246-0.528-0.493-0.949-2.041-1.09c-0.527-0.07-4.221-0.142-4.854-0.142c-0.141,0-0.211,0.106-0.211,0.282v7.387
		c0,0.175,0.036,0.316,0.211,0.316c0.704,0,4.713,0,5.417-0.071c0.739-0.07,1.161-0.175,1.478-0.457
		c0.246-0.211,0.352-0.386,0.493-0.386c0.14,0,0.246,0.14,0.246,0.315c0,0.177-0.07,0.669-0.246,2.181
		c-0.071,0.599-0.141,1.795-0.141,2.006c0,0.245-0.035,0.668-0.317,0.668c-0.211,0-0.281-0.104-0.281-0.246
		c-0.036-0.316-0.036-0.703-0.106-1.091c-0.176-0.599-0.563-1.055-1.724-1.159c-0.563-0.072-4.08-0.143-4.854-0.143
		c-0.141,0-0.176,0.143-0.176,0.317v2.392c0,1.02-0.035,3.553,0,4.433c0.071,2.04,1.021,2.496,4.186,2.496
		c0.809,0,2.11-0.035,2.92-0.386c0.773-0.353,1.125-0.986,1.336-2.216c0.07-0.318,0.141-0.458,0.352-0.458
		c0.247,0,0.282,0.387,0.282,0.703c0,0.669-0.247,2.709-0.422,3.306c-0.211,0.774-0.492,0.774-1.653,0.774
		c-2.321,0-4.186-0.035-5.698-0.106c-1.513-0.034-2.673-0.069-3.588-0.069c-0.352,0-1.02,0.035-1.758,0.035
		c-0.739,0.034-1.512,0.069-2.146,0.069c-0.387,0-0.598-0.104-0.598-0.314c0-0.142,0.105-0.316,0.493-0.316
		c0.457,0,0.809-0.037,1.09-0.107c0.633-0.14,0.809-0.703,0.914-1.582c0.141-1.266,0.141-3.623,0.141-6.366V19.131z"/>
	<radialGradient id="SVGID_5_" cx="114" cy="69.8086" r="143.5035" gradientUnits="userSpaceOnUse">
		<stop  offset="0" style="stop-color:#94E2FF"/>
		<stop  offset="0.1076" style="stop-color:#8DD9FA"/>
		<stop  offset="0.2821" style="stop-color:#78C1EB"/>
		<stop  offset="0.502" style="stop-color:#579AD3"/>
		<stop  offset="0.7559" style="stop-color:#2964B2"/>
		<stop  offset="0.9614" style="stop-color:#003394"/>
	</radialGradient>
	<path fill="url(#SVGID_5_)" d="M83.972,29.015c0.071,2.322,0.458,3.025,1.056,3.236c0.528,0.175,1.125,0.212,1.618,0.212
		c0.352,0,0.528,0.14,0.528,0.316c0,0.245-0.282,0.314-0.704,0.314c-2.005,0-3.447-0.104-4.01-0.104
		c-0.281,0-1.758,0.104-3.341,0.104c-0.422,0-0.703-0.035-0.703-0.314c0-0.177,0.211-0.316,0.492-0.316
		c0.422,0,0.985-0.037,1.407-0.142c0.809-0.212,0.914-1.02,0.95-3.622l0.281-17.729c0-0.598,0.211-1.021,0.527-1.021
		c0.387,0,0.81,0.458,1.336,0.985c0.387,0.387,5.03,5.136,9.532,9.531c2.11,2.075,6.227,6.298,6.684,6.72h0.141l-0.317-13.296
		c-0.035-1.83-0.316-2.356-1.055-2.639c-0.458-0.176-1.196-0.176-1.618-0.176c-0.388,0-0.493-0.141-0.493-0.316
		c0-0.246,0.316-0.282,0.773-0.282c1.618,0,3.271,0.071,3.939,0.071c0.353,0,1.512-0.071,3.024-0.071
		c0.423,0,0.704,0.036,0.704,0.282c0,0.176-0.176,0.316-0.528,0.316c-0.316,0-0.562,0-0.95,0.105
		c-0.844,0.245-1.09,0.773-1.125,2.461l-0.353,18.855c0,0.667-0.246,0.949-0.492,0.949c-0.527,0-0.951-0.317-1.267-0.633
		c-1.935-1.794-5.804-5.487-9.04-8.618c-3.376-3.236-6.648-6.86-7.246-7.386H83.62L83.972,29.015z"/>
	<radialGradient id="SVGID_6_" cx="114" cy="69.8086" r="143.5035" gradientUnits="userSpaceOnUse">
		<stop  offset="0" style="stop-color:#94E2FF"/>
		<stop  offset="0.1076" style="stop-color:#8DD9FA"/>
		<stop  offset="0.2821" style="stop-color:#78C1EB"/>
		<stop  offset="0.502" style="stop-color:#579AD3"/>
		<stop  offset="0.7559" style="stop-color:#2964B2"/>
		<stop  offset="0.9614" style="stop-color:#003394"/>
	</radialGradient>
	<path fill="url(#SVGID_6_)" d="M114.326,12.308l-4.607,0.105c-1.793,0.035-2.532,0.245-2.99,0.915
		c-0.316,0.42-0.457,0.809-0.528,1.019c-0.071,0.247-0.141,0.388-0.352,0.388c-0.21,0-0.281-0.176-0.281-0.492
		c0-0.494,0.598-3.377,0.668-3.624c0.07-0.386,0.177-0.562,0.352-0.562c0.246,0,0.563,0.246,1.337,0.352
		c0.915,0.105,2.075,0.141,3.095,0.141h12.557c0.985,0,1.653-0.071,2.11-0.141c0.493-0.07,0.739-0.141,0.844-0.141
		c0.211,0,0.246,0.176,0.246,0.633c0,0.634-0.07,2.848-0.07,3.623c-0.035,0.316-0.104,0.492-0.281,0.492
		c-0.246,0-0.316-0.141-0.352-0.599l-0.035-0.315c-0.07-0.773-0.879-1.688-3.658-1.724l-3.904-0.07v12.1
		c0,2.743,0.035,5.101,0.175,6.401c0.105,0.844,0.281,1.407,1.196,1.547c0.422,0.07,1.125,0.107,1.583,0.107
		c0.351,0,0.492,0.175,0.492,0.316c0,0.21-0.246,0.314-0.597,0.314c-2.041,0-4.116-0.104-4.995-0.104
		c-0.704,0-2.814,0.104-4.046,0.104c-0.386,0-0.597-0.104-0.597-0.314c0-0.142,0.105-0.316,0.492-0.316
		c0.458,0,0.844-0.037,1.091-0.107c0.634-0.14,0.809-0.703,0.914-1.582c0.141-1.266,0.141-3.623,0.141-6.366V12.308z"/>
	<radialGradient id="SVGID_7_" cx="114" cy="69.8086" r="143.5035" gradientUnits="userSpaceOnUse">
		<stop  offset="0" style="stop-color:#94E2FF"/>
		<stop  offset="0.1076" style="stop-color:#8DD9FA"/>
		<stop  offset="0.2821" style="stop-color:#78C1EB"/>
		<stop  offset="0.502" style="stop-color:#579AD3"/>
		<stop  offset="0.7559" style="stop-color:#2964B2"/>
		<stop  offset="0.9614" style="stop-color:#003394"/>
	</radialGradient>
	<path fill="url(#SVGID_7_)" d="M127.586,21.769c0-5.101,3.588-11.712,12.98-11.712c7.807,0,12.662,4.325,12.662,11.184
		c0,6.86-4.994,12.242-12.98,12.242C131.244,33.482,127.586,27.079,127.586,21.769z M148.621,22.332
		c0-6.613-3.977-10.693-8.971-10.693c-3.445,0-7.49,1.829-7.49,9.216c0,6.155,3.516,11.01,9.355,11.01
		C143.695,31.864,148.621,30.844,148.621,22.332z"/>
	<radialGradient id="SVGID_8_" cx="114" cy="69.8086" r="143.5035" gradientUnits="userSpaceOnUse">
		<stop  offset="0" style="stop-color:#94E2FF"/>
		<stop  offset="0.1076" style="stop-color:#8DD9FA"/>
		<stop  offset="0.2821" style="stop-color:#78C1EB"/>
		<stop  offset="0.502" style="stop-color:#579AD3"/>
		<stop  offset="0.7559" style="stop-color:#2964B2"/>
		<stop  offset="0.9614" style="stop-color:#003394"/>
	</radialGradient>
	<path fill="url(#SVGID_8_)" d="M162.549,24.407c0,3.833,0,5.733,0.67,6.296c0.527,0.457,1.723,0.634,4.113,0.634
		c1.654,0,2.85-0.035,3.623-0.845c0.389-0.387,0.705-1.231,0.773-1.793c0.035-0.282,0.105-0.459,0.354-0.459
		c0.211,0,0.281,0.316,0.281,0.67c0,0.351-0.211,2.566-0.459,3.445c-0.209,0.669-0.352,0.81-1.969,0.81
		c-2.217,0-4.008-0.035-5.559-0.106c-1.547-0.034-2.848-0.069-4.113-0.069c-0.352,0-1.021,0.035-1.76,0.035
		c-0.738,0.034-1.512,0.069-2.145,0.069c-0.389,0-0.598-0.104-0.598-0.314c0-0.142,0.104-0.316,0.492-0.316
		c0.457,0,0.809-0.037,1.09-0.107c0.633-0.14,0.809-0.703,0.914-1.582c0.141-1.266,0.141-3.623,0.141-6.366v-5.276
		c0-4.537,0-5.383-0.035-6.332c-0.07-1.02-0.352-1.336-1.336-1.617c-0.248-0.07-0.633-0.105-1.021-0.105
		c-0.352,0-0.525-0.105-0.525-0.316s0.209-0.282,0.666-0.282c1.443,0,3.412,0.071,4.256,0.071c0.74,0,3.273-0.071,4.469-0.071
		c0.457,0,0.668,0.071,0.668,0.282s-0.176,0.316-0.564,0.316c-0.35,0-0.842,0.035-1.195,0.105c-0.842,0.141-1.09,0.562-1.16,1.617
		c-0.07,0.949-0.07,1.795-0.07,6.332V24.407z"/>
	<radialGradient id="SVGID_9_" cx="114" cy="69.8086" r="143.5035" gradientUnits="userSpaceOnUse">
		<stop  offset="0" style="stop-color:#94E2FF"/>
		<stop  offset="0.1076" style="stop-color:#8DD9FA"/>
		<stop  offset="0.2821" style="stop-color:#78C1EB"/>
		<stop  offset="0.502" style="stop-color:#579AD3"/>
		<stop  offset="0.7559" style="stop-color:#2964B2"/>
		<stop  offset="0.9614" style="stop-color:#003394"/>
	</radialGradient>
	<path fill="url(#SVGID_9_)" d="M173.662,21.769c0-5.101,3.59-11.712,12.98-11.712c7.809,0,12.662,4.325,12.662,11.184
		c0,6.86-4.994,12.242-12.979,12.242C177.32,33.482,173.662,27.079,173.662,21.769z M194.697,22.332
		c0-6.613-3.975-10.693-8.971-10.693c-3.445,0-7.492,1.829-7.492,9.216c0,6.155,3.52,11.01,9.359,11.01
		C189.773,31.864,194.697,30.844,194.697,22.332z"/>
	<radialGradient id="SVGID_10_" cx="114" cy="69.8086" r="143.5035" gradientUnits="userSpaceOnUse">
		<stop  offset="0" style="stop-color:#94E2FF"/>
		<stop  offset="0.1076" style="stop-color:#8DD9FA"/>
		<stop  offset="0.2821" style="stop-color:#78C1EB"/>
		<stop  offset="0.502" style="stop-color:#579AD3"/>
		<stop  offset="0.7559" style="stop-color:#2964B2"/>
		<stop  offset="0.9614" style="stop-color:#003394"/>
	</radialGradient>
	<path fill="url(#SVGID_10_)" d="M223.609,31.091c0,0.809,0,0.844-0.387,1.054c-2.074,1.021-5.135,1.338-7.562,1.338
		c-7.598,0-14.316-3.448-14.316-11.714c0-4.783,2.568-8.126,5.418-9.778c2.955-1.723,5.732-1.934,8.336-1.934
		c2.146,0,4.854,0.352,5.486,0.492c0.633,0.104,1.725,0.281,2.463,0.316c0.352,0.035,0.422,0.141,0.422,0.352
		c0,0.352-0.211,1.161-0.211,4.924c0,0.457-0.176,0.67-0.422,0.67c-0.211,0-0.281-0.143-0.316-0.389
		c-0.07-0.668-0.246-1.617-1.057-2.461c-0.914-0.949-3.234-2.287-6.717-2.287c-1.689,0-3.834,0.035-5.98,1.759
		c-1.723,1.407-2.848,3.623-2.848,7.281c0,6.437,4.15,11.116,10.762,11.116c0.811,0,1.443,0,2.182-0.318
		c0.457-0.21,0.6-0.526,0.6-1.055v-2.743c0-1.478,0-2.604-0.037-3.518c-0.035-1.021-0.352-1.336-1.336-1.619
		c-0.248-0.07-0.775-0.105-1.197-0.105c-0.281,0-0.492-0.14-0.492-0.315c0-0.247,0.246-0.282,0.668-0.282
		c1.619,0,3.836,0.072,4.75,0.072c0.984,0,2.602-0.072,3.623-0.072c0.422,0,0.631,0.035,0.631,0.282
		c0,0.176-0.174,0.315-0.385,0.315c-0.246,0-0.494,0.035-0.844,0.105c-0.844,0.142-1.162,0.563-1.197,1.619
		c-0.035,0.914-0.035,2.11-0.035,3.587V31.091z"/>
	<radialGradient id="SVGID_11_" cx="114" cy="69.8086" r="143.5035" gradientUnits="userSpaceOnUse">
		<stop  offset="0" style="stop-color:#94E2FF"/>
		<stop  offset="0.1076" style="stop-color:#8DD9FA"/>
		<stop  offset="0.2821" style="stop-color:#78C1EB"/>
		<stop  offset="0.502" style="stop-color:#579AD3"/>
		<stop  offset="0.7559" style="stop-color:#2964B2"/>
		<stop  offset="0.9614" style="stop-color:#003394"/>
	</radialGradient>
	<path fill="url(#SVGID_11_)" d="M234.195,25.322c0-1.619-0.279-2.252-0.703-3.131c-0.209-0.458-4.432-7.036-5.521-8.618
		c-0.773-1.09-1.406-1.794-2.004-2.11c-0.389-0.211-0.916-0.387-1.303-0.387c-0.246,0-0.457-0.105-0.457-0.316
		s0.211-0.282,0.598-0.282c0.527,0,2.85,0.071,3.869,0.071c0.668,0,2.111-0.071,3.518-0.071c0.283,0,0.457,0.071,0.457,0.282
		c0,0.246-0.209,0.246-0.703,0.387c-0.246,0.07-0.422,0.211-0.422,0.457s0.141,0.598,0.387,1.021
		c0.564,0.914,4.607,7.914,5.137,8.759c0.385-0.704,4.148-7.105,4.607-8.021c0.314-0.669,0.457-1.196,0.457-1.583
		c0-0.281-0.143-0.562-0.668-0.668c-0.281-0.07-0.562-0.105-0.562-0.352c0-0.211,0.174-0.282,0.527-0.282
		c1.02,0,2.109,0.071,3.025,0.071c0.666,0,2.707-0.071,3.305-0.071c0.352,0,0.564,0.071,0.564,0.246c0,0.212-0.248,0.353-0.6,0.353
		c-0.314,0-0.879,0.141-1.336,0.351c-0.668,0.317-0.949,0.599-1.617,1.407c-1.021,1.197-5.453,8.302-6.016,9.568
		c-0.457,1.091-0.389,2.005-0.389,2.989v2.392c0,0.493,0,1.725,0.072,2.99c0.07,0.879,0.352,1.442,1.266,1.582
		c0.457,0.07,1.127,0.107,1.547,0.107c0.354,0,0.529,0.175,0.529,0.316c0,0.21-0.246,0.314-0.67,0.314
		c-1.934,0-4.008-0.104-4.854-0.104c-0.773,0-2.848,0.104-4.01,0.104c-0.422,0-0.668-0.069-0.668-0.314
		c0-0.142,0.141-0.316,0.492-0.316c0.424,0,0.809-0.037,1.092-0.107c0.631-0.14,0.879-0.703,0.949-1.582
		c0.104-1.266,0.104-2.497,0.104-2.99V25.322z"/>
</g>
</svg>
